<?xml version="1.0" encoding="utf-8"?>
<!-- Generator: Adobe Illustrator 19.0.0, SVG Export Plug-In . SVG Version: 6.00 Build 0)  -->
<svg version="1.1" id="Layer_1" xmlns="http://www.w3.org/2000/svg" xmlns:xlink="http://www.w3.org/1999/xlink" x="0px" y="0px"
	 viewBox="0 0 170.1 155.9" style="enable-background:new 0 0 170.1 155.9;" xml:space="preserve">
<style type="text/css">
	.st0{fill:#43525A;}
	.st1{fill-rule:evenodd;clip-rule:evenodd;fill:#43525A;}
</style>
<g>
	<path class="st0" d="M21.9,135.3c0.1,0.2,0.2,0.5,0.3,0.7c0.1,0.2,0.2,0.5,0.3,0.7c0.1-0.3,0.2-0.5,0.3-0.8s0.2-0.5,0.3-0.7
		l4.6-8.5c0.1-0.1,0.1-0.2,0.2-0.3c0.1-0.1,0.1-0.1,0.2-0.1c0.1,0,0.2,0,0.2-0.1c0.1,0,0.2,0,0.3,0h2.2v15.4h-2.5v-10
		c0-0.2,0-0.4,0-0.6c0-0.2,0-0.4,0-0.7l-4.7,8.7c-0.1,0.2-0.2,0.4-0.4,0.5c-0.2,0.1-0.4,0.2-0.6,0.2h-0.4c-0.2,0-0.4-0.1-0.6-0.2
		c-0.2-0.1-0.3-0.3-0.4-0.5l-4.7-8.8c0,0.2,0,0.5,0.1,0.7c0,0.2,0,0.4,0,0.6v10h-2.5v-15.4h2.2c0.1,0,0.2,0,0.3,0
		c0.1,0,0.2,0,0.3,0.1c0.1,0,0.1,0.1,0.2,0.1c0.1,0.1,0.1,0.1,0.2,0.3L21.9,135.3z"/>
	<path class="st0" d="M52,133.9c0-0.8-0.1-1.6-0.3-2.3c-0.2-0.7-0.5-1.2-1-1.7c-0.4-0.5-0.9-0.8-1.5-1.1c-0.6-0.2-1.3-0.4-2-0.4
		c-0.8,0-1.4,0.1-2,0.4c-0.6,0.2-1.1,0.6-1.5,1.1c-0.4,0.5-0.7,1-1,1.7c-0.2,0.7-0.3,1.4-0.3,2.3c0,0.8,0.1,1.6,0.3,2.3
		c0.2,0.7,0.6,1.2,1,1.7c0.4,0.5,0.9,0.8,1.5,1.1c0.6,0.2,1.3,0.4,2,0.4c0.8,0,1.4-0.1,2-0.4c0.6-0.2,1.1-0.6,1.5-1.1
		c0.4-0.5,0.7-1,1-1.7C51.9,135.6,52,134.8,52,133.9 M54.9,133.9c0,1.1-0.2,2.2-0.6,3.1c-0.4,1-0.9,1.8-1.6,2.5
		c-0.7,0.7-1.5,1.2-2.5,1.6c-1,0.4-2,0.6-3.2,0.6c-1.2,0-2.2-0.2-3.2-0.6c-1-0.4-1.8-0.9-2.5-1.6c-0.7-0.7-1.2-1.5-1.6-2.5
		c-0.4-1-0.6-2-0.6-3.1s0.2-2.2,0.6-3.1c0.4-1,0.9-1.8,1.6-2.5c0.7-0.7,1.5-1.3,2.5-1.6c1-0.4,2-0.6,3.2-0.6c1.2,0,2.2,0.2,3.2,0.6
		c1,0.4,1.8,0.9,2.5,1.6c0.7,0.7,1.2,1.5,1.6,2.5C54.7,131.8,54.9,132.8,54.9,133.9z"/>
	<path class="st0" d="M74.1,133.9c0-0.8-0.1-1.6-0.3-2.3c-0.2-0.7-0.6-1.2-1-1.7c-0.4-0.5-0.9-0.8-1.5-1.1c-0.6-0.2-1.3-0.4-2-0.4
		h-3v10.8h3c0.8,0,1.4-0.1,2-0.4c0.6-0.2,1.1-0.6,1.5-1.1c0.4-0.5,0.7-1,1-1.7C74,135.5,74.1,134.8,74.1,133.9 M77,133.9
		c0,1.1-0.2,2.2-0.6,3.1c-0.4,0.9-0.9,1.8-1.6,2.4c-0.7,0.7-1.5,1.2-2.5,1.6c-1,0.4-2,0.6-3.2,0.6h-5.9v-15.4h5.9
		c1.2,0,2.2,0.2,3.2,0.6c1,0.4,1.8,0.9,2.5,1.6c0.7,0.7,1.2,1.5,1.6,2.4C76.8,131.8,77,132.8,77,133.9z"/>
	<path class="st0" d="M91.7,139.3c0.6,0,1.1-0.1,1.5-0.3c0.4-0.2,0.8-0.4,1.1-0.8c0.3-0.3,0.5-0.7,0.7-1.2c0.2-0.5,0.2-1,0.2-1.6
		v-9.2H98v9.2c0,0.9-0.1,1.8-0.4,2.5c-0.3,0.8-0.7,1.4-1.3,2c-0.6,0.6-1.2,1-2,1.3c-0.8,0.3-1.7,0.5-2.7,0.5s-1.9-0.2-2.7-0.5
		c-0.8-0.3-1.5-0.8-2-1.3c-0.6-0.6-1-1.2-1.3-2c-0.3-0.8-0.4-1.6-0.4-2.5v-9.2h2.9v9.2c0,0.6,0.1,1.1,0.2,1.6
		c0.2,0.5,0.4,0.9,0.7,1.2c0.3,0.3,0.7,0.6,1.1,0.8C90.6,139.2,91.1,139.3,91.7,139.3"/>
	<polygon class="st0" points="110,139.3 116.2,139.3 116.2,141.6 107.1,141.6 107.1,126.2 110,126.2 	"/>
	<path class="st0" d="M135.3,133.9c0-0.8-0.1-1.6-0.3-2.3c-0.2-0.7-0.5-1.2-1-1.7c-0.4-0.5-0.9-0.8-1.5-1.1c-0.6-0.2-1.3-0.4-2-0.4
		c-0.8,0-1.4,0.1-2,0.4c-0.6,0.2-1.1,0.6-1.5,1.1c-0.4,0.5-0.7,1-1,1.7c-0.2,0.7-0.3,1.4-0.3,2.3c0,0.8,0.1,1.6,0.3,2.3
		c0.2,0.7,0.6,1.2,1,1.7c0.4,0.5,0.9,0.8,1.5,1.1c0.6,0.2,1.3,0.4,2,0.4c0.8,0,1.4-0.1,2-0.4c0.6-0.2,1.1-0.6,1.5-1.1
		c0.4-0.5,0.7-1,1-1.7C135.2,135.6,135.3,134.8,135.3,133.9 M138.2,133.9c0,1.1-0.2,2.2-0.6,3.1c-0.4,1-0.9,1.8-1.6,2.5
		c-0.7,0.7-1.5,1.2-2.5,1.6c-1,0.4-2,0.6-3.2,0.6c-1.2,0-2.2-0.2-3.2-0.6c-1-0.4-1.8-0.9-2.5-1.6c-0.7-0.7-1.2-1.5-1.6-2.5
		c-0.4-1-0.6-2-0.6-3.1s0.2-2.2,0.6-3.1c0.4-1,0.9-1.8,1.6-2.5c0.7-0.7,1.5-1.3,2.5-1.6c1-0.4,2-0.6,3.2-0.6c1.2,0,2.2,0.2,3.2,0.6
		c1,0.4,1.8,0.9,2.5,1.6c0.7,0.7,1.2,1.5,1.6,2.5C138.1,131.8,138.2,132.8,138.2,133.9z"/>
	<path class="st0" d="M154.9,129.1c-0.1,0.2-0.2,0.3-0.3,0.3c-0.1,0.1-0.2,0.1-0.4,0.1c-0.1,0-0.3-0.1-0.5-0.2
		c-0.2-0.1-0.4-0.2-0.6-0.4c-0.2-0.1-0.5-0.3-0.8-0.4c-0.3-0.1-0.7-0.2-1.1-0.2c-0.4,0-0.7,0-1,0.1c-0.3,0.1-0.5,0.2-0.7,0.4
		c-0.2,0.2-0.4,0.4-0.5,0.6c-0.1,0.2-0.1,0.5-0.1,0.8c0,0.4,0.1,0.7,0.3,0.9c0.2,0.2,0.5,0.4,0.8,0.6c0.3,0.2,0.7,0.3,1.1,0.5
		c0.4,0.1,0.9,0.3,1.3,0.4c0.4,0.1,0.9,0.3,1.3,0.5c0.4,0.2,0.8,0.5,1.1,0.8c0.3,0.3,0.6,0.7,0.8,1.1c0.2,0.4,0.3,1,0.3,1.6
		c0,0.7-0.1,1.3-0.4,2c-0.2,0.6-0.6,1.1-1,1.6c-0.5,0.5-1,0.8-1.7,1.1c-0.7,0.3-1.4,0.4-2.3,0.4c-0.5,0-1,0-1.4-0.1
		c-0.5-0.1-0.9-0.2-1.4-0.4c-0.4-0.2-0.8-0.4-1.2-0.6c-0.4-0.2-0.7-0.5-1-0.8l0.8-1.4c0.1-0.1,0.2-0.2,0.3-0.2
		c0.1-0.1,0.2-0.1,0.4-0.1c0.2,0,0.4,0.1,0.6,0.2c0.2,0.1,0.5,0.3,0.7,0.5c0.3,0.2,0.6,0.3,1,0.5c0.4,0.1,0.8,0.2,1.4,0.2
		c0.8,0,1.4-0.2,1.9-0.6c0.4-0.4,0.7-0.9,0.7-1.7c0-0.4-0.1-0.7-0.3-1c-0.2-0.3-0.5-0.5-0.8-0.6c-0.3-0.2-0.7-0.3-1.1-0.4
		c-0.4-0.1-0.9-0.3-1.3-0.4c-0.4-0.1-0.9-0.3-1.3-0.5c-0.4-0.2-0.8-0.5-1.1-0.8c-0.3-0.3-0.6-0.7-0.8-1.2c-0.2-0.5-0.3-1.1-0.3-1.8
		c0-0.6,0.1-1.1,0.3-1.6c0.2-0.5,0.6-1,1-1.4c0.4-0.4,1-0.7,1.6-1c0.6-0.2,1.3-0.4,2.1-0.4c0.9,0,1.7,0.1,2.5,0.4
		c0.8,0.3,1.4,0.7,2,1.2L154.9,129.1z"/>
	<polygon class="st1" points="85,70.8 42.5,42.4 42.5,70.8 48.4,74.7 48.4,54.9 85,79.3 121.7,54.9 121.7,74.7 127.6,70.8 
		127.6,42.4 	"/>
	<polygon class="st1" points="85,14.1 47.2,39.3 53.1,43.2 85,22 117,43.2 122.9,39.3 	"/>
	<path class="st1" d="M121.7,73.2l1.2,0.8l-1.2,0.8V73.2z M48.4,74.8L47.2,74l1.2-0.8V74.8z M85,99.2L54.3,78.7v-7.9L85,91.4
		l30.7-20.5v7.9L85,99.2z"/>
</g>
</svg>
