
<svg width="50px" height="50px" viewBox="0 0 50 50" version="1.1" xmlns="http://www.w3.org/2000/svg" xmlns:xlink="http://www.w3.org/1999/xlink">
    <!-- Generator: Sketch 48.2 (47327) - http://www.bohemiancoding.com/sketch -->
    <desc>Created with Sketch.</desc>
    <defs></defs>
    <g id="Page-1" stroke="none" stroke-width="1" fill="none" fill-rule="evenodd">
        <g id="LMS-Index" transform="translate(-150.000000, -30.000000)" fill="#050505" fill-rule="nonzero">
            <g id="Group-2" transform="translate(150.000000, 30.000000)">
                <path d="M49.9021277,18.9579787 C49.819016,18.6691649 49.588383,18.4468404 49.2954255,18.3761702 L25.1932979,12.5580851 C25.0644734,12.5269181 24.9314947,12.5269181 24.8026702,12.5580851 L0.700542553,18.3761702 C0.407574468,18.4468138 0.17693617,18.6691383 0.0938404255,18.9579787 C0.0128085106,19.2467926 0.0938404255,19.5584574 0.305776596,19.7703723 L5.53971277,25.0001596 L0.309925532,30.2299468 C0.0979893617,30.441883 0.0148776596,30.7535532 0.0979893617,31.0423404 C0.181101064,31.3311277 0.411734043,31.5534787 0.704691489,31.6241489 L24.8068191,37.442234 C24.8691543,37.4588564 24.9335638,37.4671676 25.0000532,37.4671676 C25.0665426,37.4671676 25.1309521,37.4588564 25.195367,37.4443117 L49.2974947,31.6262266 C49.5904628,31.555583 49.8210957,31.3332585 49.9041968,31.0444181 C49.9852287,30.7556043 49.9041968,30.4439394 49.6922606,30.2320245 L44.4603989,25.0001628 L49.6901862,19.7703755 C49.9021223,19.5563649 49.9831543,19.2467691 49.9021223,18.9579819 L49.9021277,18.9579787 Z M42.6962766,24.412234 C42.3721383,24.7363723 42.3721383,25.2620745 42.6962766,25.5882447 L47.4669149,30.358883 L24.9998936,35.7796277 L2.53287234,30.3567553 L7.30351064,25.586117 C7.62764894,25.261984 7.62764894,24.7362766 7.30351064,24.4101064 L2.53287234,19.6394681 L24.9998936,14.2203191 L47.4669149,19.6431915 L42.6962766,24.412234 Z" id="Shape"></path>
                <path d="M46.85,16.9755319 L48.4104255,16.4020745 C44.8220745,6.63239362 35.413617,0.0664361702 24.9997872,0.0664361702 C14.5859574,0.0664361702 5.17744681,6.63239362 1.58914894,16.4020745 L3.14957447,16.9755319 C6.49898936,7.85585106 15.2798936,1.7287234 24.9995745,1.7287234 C34.7192553,1.7287234 43.5001064,7.85638298 46.8495745,16.9755319 L46.85,16.9755319 Z" id="Shape"></path>
                <path d="M3.14994681,33.0244681 L1.58952128,33.5979255 C5.17787234,43.3676064 14.5863298,49.9335638 25.0001596,49.9335638 C35.4139894,49.9335638 44.8225,43.3676064 48.4107979,33.5979255 L46.8503723,33.0244681 C43.5009574,42.1441489 34.7200532,48.2712766 25.0003723,48.2712766 C15.2806915,48.2712766 6.49984043,42.143617 3.15037234,33.0244681 L3.14994681,33.0244681 Z" id="Shape"></path>
                <path d="M9.58085106,13.7031915 L10.9210106,14.6880851 C14.2039362,10.2167021 19.4667553,7.54659574 25.000266,7.54659574 C30.5337766,7.54659574 35.7965426,10.2165426 39.0773936,14.6880851 L40.4175532,13.7031915 C36.8271277,8.80792553 31.0611702,5.88457447 25.0005319,5.88457447 C18.9398936,5.88457447 13.1739362,8.80803191 9.58138298,13.7031915 L9.58085106,13.7031915 Z" id="Shape"></path>
                <path d="M40.4191489,36.2968085 L39.0789894,35.3119149 C35.7960638,39.7832979 30.5332447,42.4534043 24.999734,42.4534043 C19.4662234,42.4534043 14.2034574,39.7834574 10.9226064,35.3119149 L9.58244681,36.2968085 C13.1728723,41.1920745 18.9388298,44.1154255 24.9994681,44.1154255 C31.0601064,44.1154255 36.8260638,41.1919681 40.418617,36.2968085 L40.4191489,36.2968085 Z" id="Shape"></path>
                <path d="M15.0265957,20.0132979 L10.0398936,20.0132979 C9.58070213,20.0132979 9.2087766,20.3852234 9.2087766,20.8444149 L9.2087766,27.4933511 C9.2087766,27.9525426 9.58070213,28.3244681 10.0398936,28.3244681 L15.0265957,28.3244681 C15.4857872,28.3244681 15.8577128,27.9525426 15.8577128,27.4933511 L15.8577128,20.8444149 C15.8577128,20.3852234 15.4857872,20.0132979 15.0265957,20.0132979 Z M14.1954787,26.662234 L10.8710106,26.662234 L10.8710106,21.6755319 L14.1954787,21.6755319 L14.1954787,26.662234 Z" id="Shape"></path>
                <path d="M24.1691489,20.8446809 C24.1691489,20.3854894 23.7972234,20.0135638 23.3380319,20.0135638 L18.3513298,20.0135638 C17.8921383,20.0135638 17.5202128,20.3854894 17.5202128,20.8446809 L17.5202128,27.493617 C17.5202128,27.9528085 17.8921383,28.324734 18.3513298,28.324734 L23.3380319,28.324734 C23.7972234,28.324734 24.1691489,27.9528085 24.1691489,27.493617 L24.1691489,20.8446809 Z M22.5069149,26.662766 L19.1824468,26.662766 L19.1824468,21.6760638 L22.5069149,21.6760638 L22.5069149,26.662766 Z" id="Shape"></path>
                <path d="M26.662234,28.3244681 L31.6489362,28.3244681 C32.1081277,28.3244681 32.4800532,27.9525426 32.4800532,27.4933511 L32.4800532,20.8444149 C32.4800532,20.3852234 32.1081277,20.0132979 31.6489362,20.0132979 L26.662234,20.0132979 C26.2030426,20.0132979 25.831117,20.3852234 25.831117,20.8444149 L25.831117,27.4933511 C25.831117,27.9525426 26.2030426,28.3244681 26.662234,28.3244681 Z M27.4933511,21.6755319 L30.8178191,21.6755319 L30.8178191,26.662234 L27.4933511,26.662234 L27.4933511,21.6755319 Z" id="Shape"></path>
                <path d="M34.9734043,28.3244681 L39.9601064,28.3244681 C40.4192979,28.3244681 40.7912234,27.9525426 40.7912234,27.4933511 L40.7912234,20.8444149 C40.7912234,20.3852234 40.4192979,20.0132979 39.9601064,20.0132979 L34.9734043,20.0132979 C34.5142128,20.0132979 34.1422872,20.3852234 34.1422872,20.8444149 L34.1422872,27.4933511 C34.1422872,27.9525426 34.5142128,28.3244681 34.9734043,28.3244681 Z M35.8045213,21.6755319 L39.1289894,21.6755319 L39.1289894,26.662234 L35.8045213,26.662234 L35.8045213,21.6755319 Z" id="Shape"></path>
                <polygon id="Shape" points="20.8446809 29.9867021 22.5069149 29.9867021 22.5069149 31.6489362 20.8446809 31.6489362"></polygon>
                <polygon id="Shape" points="24.1691489 29.9867021 25.831383 29.9867021 25.831383 31.6489362 24.1691489 31.6489362"></polygon>
                <polygon id="Shape" points="27.493617 29.9867021 29.1558511 29.9867021 29.1558511 31.6489362 27.493617 31.6489362"></polygon>
            </g>
        </g>
    </g>
</svg>
