
<svg width="175px" height="50px" viewBox="0 0 175 50" version="1.1" xmlns="http://www.w3.org/2000/svg" xmlns:xlink="http://www.w3.org/1999/xlink">
    <!-- Generator: Sketch 48.2 (47327) - http://www.bohemiancoding.com/sketch -->
    <desc>Created with Sketch.</desc>
    <defs></defs>
    <g id="Page-1" stroke="none" stroke-width="1" fill="none" fill-rule="evenodd">
        <g id="LMS-Index" transform="translate(-150.000000, -30.000000)">
            <path d="M219.68,56.3 C218.706662,56.3 217.820004,56.1400016 217.02,55.82 C216.219996,55.4999984 215.533336,55.0333364 214.96,54.42 C214.386664,53.8066636 213.943335,53.0500045 213.63,52.15 C213.316665,51.2499955 213.16,50.2200058 213.16,49.06 C213.16,47.8999942 213.336665,46.8700045 213.69,45.97 C214.043335,45.0699955 214.519997,44.3133364 215.12,43.7 C215.720003,43.0866636 216.419996,42.6200016 217.22,42.3 C218.020004,41.9799984 218.873329,41.82 219.78,41.82 C220.353336,41.82 220.869998,41.8599996 221.33,41.94 C221.790002,42.0200004 222.189998,42.1133328 222.53,42.22 C222.870002,42.3266672 223.146666,42.4333328 223.36,42.54 C223.573334,42.6466672 223.72,42.7266664 223.8,42.78 L223.24,44.38 C223.119999,44.2999996 222.946668,44.2133338 222.72,44.12 C222.493332,44.0266662 222.236668,43.9333338 221.95,43.84 C221.663332,43.7466662 221.350002,43.6700003 221.01,43.61 C220.669998,43.5499997 220.326668,43.52 219.98,43.52 C219.246663,43.52 218.58667,43.6466654 218,43.9 C217.41333,44.1533346 216.913335,44.5199976 216.5,45 C216.086665,45.4800024 215.770001,46.0633299 215.55,46.75 C215.329999,47.4366701 215.22,48.2066624 215.22,49.06 C215.22,49.8866708 215.316666,50.6399966 215.51,51.32 C215.703334,52.0000034 215.993331,52.5833309 216.38,53.07 C216.766669,53.5566691 217.249997,53.933332 217.83,54.2 C218.410003,54.466668 219.086663,54.6 219.86,54.6 C220.753338,54.6 221.49333,54.5066676 222.08,54.32 C222.66667,54.1333324 223.106665,53.9666674 223.4,53.82 L223.9,55.42 C223.806666,55.486667 223.640001,55.5699995 223.4,55.67 C223.159999,55.7700005 222.860002,55.8666662 222.5,55.96 C222.139998,56.0533338 221.720002,56.133333 221.24,56.2 C220.759998,56.266667 220.240003,56.3 219.68,56.3 Z M234.88,50.8 C234.88,51.6266708 234.760001,52.37333 234.52,53.04 C234.279999,53.70667 233.943335,54.2799976 233.51,54.76 C233.076664,55.2400024 232.560003,55.6099987 231.96,55.87 C231.359997,56.1300013 230.70667,56.26 230,56.26 C229.29333,56.26 228.640003,56.1300013 228.04,55.87 C227.439997,55.6099987 226.923336,55.2400024 226.49,54.76 C226.056665,54.2799976 225.720001,53.70667 225.48,53.04 C225.239999,52.37333 225.12,51.6266708 225.12,50.8 C225.12,49.9866626 225.239999,49.2433367 225.48,48.57 C225.720001,47.8966633 226.056665,47.3200024 226.49,46.84 C226.923336,46.3599976 227.439997,45.9900013 228.04,45.73 C228.640003,45.4699987 229.29333,45.34 230,45.34 C230.70667,45.34 231.359997,45.4699987 231.96,45.73 C232.560003,45.9900013 233.076664,46.3599976 233.51,46.84 C233.943335,47.3200024 234.279999,47.8966633 234.52,48.57 C234.760001,49.2433367 234.88,49.9866626 234.88,50.8 Z M232.94,50.8 C232.94,49.6266608 232.676669,48.6966701 232.15,48.01 C231.623331,47.3233299 230.906671,46.98 230,46.98 C229.093329,46.98 228.376669,47.3233299 227.85,48.01 C227.323331,48.6966701 227.06,49.6266608 227.06,50.8 C227.06,51.9733392 227.323331,52.9033299 227.85,53.59 C228.376669,54.2766701 229.093329,54.62 230,54.62 C230.906671,54.62 231.623331,54.2766701 232.15,53.59 C232.676669,52.9033299 232.94,51.9733392 232.94,50.8 Z M246.68,50.8 C246.68,51.6266708 246.560001,52.37333 246.32,53.04 C246.079999,53.70667 245.743336,54.2799976 245.31,54.76 C244.876665,55.2400024 244.360003,55.6099987 243.76,55.87 C243.159997,56.1300013 242.50667,56.26 241.8,56.26 C241.09333,56.26 240.440003,56.1300013 239.84,55.87 C239.239997,55.6099987 238.723335,55.2400024 238.29,54.76 C237.856664,54.2799976 237.520001,53.70667 237.28,53.04 C237.039999,52.37333 236.92,51.6266708 236.92,50.8 C236.92,49.9866626 237.039999,49.2433367 237.28,48.57 C237.520001,47.8966633 237.856664,47.3200024 238.29,46.84 C238.723335,46.3599976 239.239997,45.9900013 239.84,45.73 C240.440003,45.4699987 241.09333,45.34 241.8,45.34 C242.50667,45.34 243.159997,45.4699987 243.76,45.73 C244.360003,45.9900013 244.876665,46.3599976 245.31,46.84 C245.743336,47.3200024 246.079999,47.8966633 246.32,48.57 C246.560001,49.2433367 246.68,49.9866626 246.68,50.8 Z M244.74,50.8 C244.74,49.6266608 244.476669,48.6966701 243.95,48.01 C243.423331,47.3233299 242.706671,46.98 241.8,46.98 C240.893329,46.98 240.176669,47.3233299 239.65,48.01 C239.123331,48.6966701 238.86,49.6266608 238.86,50.8 C238.86,51.9733392 239.123331,52.9033299 239.65,53.59 C240.176669,54.2766701 240.893329,54.62 241.8,54.62 C242.706671,54.62 243.423331,54.2766701 243.95,53.59 C244.476669,52.9033299 244.74,51.9733392 244.74,50.8 Z M252.42,56.2 C251.273328,56.1733332 250.460002,55.926669 249.98,55.46 C249.499998,54.993331 249.26,54.2666716 249.26,53.28 L249.26,40.8 L251.12,40.48 L251.12,52.98 C251.12,53.2866682 251.146666,53.539999 251.2,53.74 C251.253334,53.940001 251.339999,54.0999994 251.46,54.22 C251.580001,54.3400006 251.739999,54.4299997 251.94,54.49 C252.140001,54.5500003 252.386665,54.5999998 252.68,54.64 L252.42,56.2 Z M260.84,56.3 C259.866662,56.3 258.980004,56.1400016 258.18,55.82 C257.379996,55.4999984 256.693336,55.0333364 256.12,54.42 C255.546664,53.8066636 255.103335,53.0500045 254.79,52.15 C254.476665,51.2499955 254.32,50.2200058 254.32,49.06 C254.32,47.8999942 254.496665,46.8700045 254.85,45.97 C255.203335,45.0699955 255.679997,44.3133364 256.28,43.7 C256.880003,43.0866636 257.579996,42.6200016 258.38,42.3 C259.180004,41.9799984 260.033329,41.82 260.94,41.82 C261.513336,41.82 262.029998,41.8599996 262.49,41.94 C262.950002,42.0200004 263.349998,42.1133328 263.69,42.22 C264.030002,42.3266672 264.306666,42.4333328 264.52,42.54 C264.733334,42.6466672 264.88,42.7266664 264.96,42.78 L264.4,44.38 C264.279999,44.2999996 264.106668,44.2133338 263.88,44.12 C263.653332,44.0266662 263.396668,43.9333338 263.11,43.84 C262.823332,43.7466662 262.510002,43.6700003 262.17,43.61 C261.829998,43.5499997 261.486668,43.52 261.14,43.52 C260.406663,43.52 259.74667,43.6466654 259.16,43.9 C258.57333,44.1533346 258.073335,44.5199976 257.66,45 C257.246665,45.4800024 256.930001,46.0633299 256.71,46.75 C256.489999,47.4366701 256.38,48.2066624 256.38,49.06 C256.38,49.8866708 256.476666,50.6399966 256.67,51.32 C256.863334,52.0000034 257.153331,52.5833309 257.54,53.07 C257.926669,53.5566691 258.409997,53.933332 258.99,54.2 C259.570003,54.466668 260.246663,54.6 261.02,54.6 C261.913338,54.6 262.65333,54.5066676 263.24,54.32 C263.82667,54.1333324 264.266665,53.9666674 264.56,53.82 L265.06,55.42 C264.966666,55.486667 264.800001,55.5699995 264.56,55.67 C264.319999,55.7700005 264.020002,55.8666662 263.66,55.96 C263.299998,56.0533338 262.880002,56.133333 262.4,56.2 C261.919998,56.266667 261.400003,56.3 260.84,56.3 Z M276.04,50.8 C276.04,51.6266708 275.920001,52.37333 275.68,53.04 C275.439999,53.70667 275.103336,54.2799976 274.67,54.76 C274.236665,55.2400024 273.720003,55.6099987 273.12,55.87 C272.519997,56.1300013 271.86667,56.26 271.16,56.26 C270.45333,56.26 269.800003,56.1300013 269.2,55.87 C268.599997,55.6099987 268.083335,55.2400024 267.65,54.76 C267.216664,54.2799976 266.880001,53.70667 266.64,53.04 C266.399999,52.37333 266.28,51.6266708 266.28,50.8 C266.28,49.9866626 266.399999,49.2433367 266.64,48.57 C266.880001,47.8966633 267.216664,47.3200024 267.65,46.84 C268.083335,46.3599976 268.599997,45.9900013 269.2,45.73 C269.800003,45.4699987 270.45333,45.34 271.16,45.34 C271.86667,45.34 272.519997,45.4699987 273.12,45.73 C273.720003,45.9900013 274.236665,46.3599976 274.67,46.84 C275.103336,47.3200024 275.439999,47.8966633 275.68,48.57 C275.920001,49.2433367 276.04,49.9866626 276.04,50.8 Z M274.1,50.8 C274.1,49.6266608 273.836669,48.6966701 273.31,48.01 C272.783331,47.3233299 272.066671,46.98 271.16,46.98 C270.253329,46.98 269.536669,47.3233299 269.01,48.01 C268.483331,48.6966701 268.22,49.6266608 268.22,50.8 C268.22,51.9733392 268.483331,52.9033299 269.01,53.59 C269.536669,54.2766701 270.253329,54.62 271.16,54.62 C272.066671,54.62 272.783331,54.2766701 273.31,53.59 C273.836669,52.9033299 274.1,51.9733392 274.1,50.8 Z M286.94,55.7 C286.513331,55.8066672 285.950003,55.9199994 285.25,56.04 C284.549997,56.1600006 283.740005,56.22 282.82,56.22 C282.019996,56.22 281.346669,56.1033345 280.8,55.87 C280.253331,55.6366655 279.813335,55.3066688 279.48,54.88 C279.146665,54.4533312 278.906667,53.9500029 278.76,53.37 C278.613333,52.7899971 278.54,52.1466702 278.54,51.44 L278.54,45.6 L280.4,45.6 L280.4,51.04 C280.4,52.306673 280.599998,53.2133306 281,53.76 C281.400002,54.3066694 282.073329,54.58 283.02,54.58 C283.220001,54.58 283.426666,54.5733334 283.64,54.56 C283.853334,54.5466666 284.053332,54.5300001 284.24,54.51 C284.426668,54.4899999 284.596666,54.4700001 284.75,54.45 C284.903334,54.4299999 285.013333,54.4066668 285.08,54.38 L285.08,45.6 L286.94,45.6 L286.94,55.7 Z M293.98,45.38 C294.140001,45.38 294.323332,45.3899999 294.53,45.41 C294.736668,45.4300001 294.939999,45.4566665 295.14,45.49 C295.340001,45.5233335 295.523333,45.5566665 295.69,45.59 C295.856668,45.6233335 295.98,45.6533332 296.06,45.68 L295.74,47.3 C295.593333,47.2466664 295.350002,47.1833337 295.01,47.11 C294.669998,47.0366663 294.233336,47 293.7,47 C293.353332,47 293.010002,47.0366663 292.67,47.11 C292.329998,47.1833337 292.106667,47.2333332 292,47.26 L292,56 L290.14,56 L290.14,46.04 C290.580002,45.8799992 291.126663,45.7300007 291.78,45.59 C292.433337,45.4499993 293.166663,45.38 293.98,45.38 Z M300.28,54.66 C301.040004,54.66 301.603331,54.560001 301.97,54.36 C302.336668,54.159999 302.52,53.8400022 302.52,53.4 C302.52,52.9466644 302.340002,52.586668 301.98,52.32 C301.619998,52.053332 301.026671,51.753335 300.2,51.42 C299.799998,51.2599992 299.416669,51.0966675 299.05,50.93 C298.683332,50.7633325 298.366668,50.5666678 298.1,50.34 C297.833332,50.1133322 297.620001,49.8400016 297.46,49.52 C297.299999,49.1999984 297.22,48.806669 297.22,48.34 C297.22,47.4199954 297.559997,46.6900027 298.24,46.15 C298.920003,45.6099973 299.846661,45.34 301.02,45.34 C301.313335,45.34 301.606665,45.3566665 301.9,45.39 C302.193335,45.4233335 302.466665,45.4633331 302.72,45.51 C302.973335,45.5566669 303.196666,45.6066664 303.39,45.66 C303.583334,45.7133336 303.733333,45.7599998 303.84,45.8 L303.5,47.4 C303.299999,47.2933328 302.986669,47.1833339 302.56,47.07 C302.133331,46.9566661 301.620003,46.9 301.02,46.9 C300.499997,46.9 300.046669,47.0033323 299.66,47.21 C299.273331,47.4166677 299.08,47.7399978 299.08,48.18 C299.08,48.4066678 299.123333,48.6066658 299.21,48.78 C299.296667,48.9533342 299.429999,49.1099993 299.61,49.25 C299.790001,49.3900007 300.013332,49.5199994 300.28,49.64 C300.546668,49.7600006 300.866665,49.886666 301.24,50.02 C301.733336,50.2066676 302.173331,50.3899991 302.56,50.57 C302.946669,50.7500009 303.276665,50.9599988 303.55,51.2 C303.823335,51.4400012 304.033333,51.7299983 304.18,52.07 C304.326667,52.4100017 304.4,52.8266642 304.4,53.32 C304.4,54.2800048 304.043337,55.0066642 303.33,55.5 C302.616663,55.9933358 301.600007,56.24 300.28,56.24 C299.359995,56.24 298.640003,56.1633341 298.12,56.01 C297.599997,55.8566659 297.246668,55.7400004 297.06,55.66 L297.4,54.06 C297.613334,54.1400004 297.953331,54.2599992 298.42,54.42 C298.886669,54.5800008 299.506663,54.66 300.28,54.66 Z M306.2,50.82 C306.2,49.8999954 306.333332,49.0966701 306.6,48.41 C306.866668,47.7233299 307.219998,47.1533356 307.66,46.7 C308.100002,46.2466644 308.606664,45.9066678 309.18,45.68 C309.753336,45.4533322 310.339997,45.34 310.94,45.34 C312.340007,45.34 313.41333,45.7766623 314.16,46.65 C314.90667,47.5233377 315.28,48.8533244 315.28,50.64 L315.28,50.95 C315.28,51.0766673 315.273333,51.1933328 315.26,51.3 L308.14,51.3 C308.22,52.3800054 308.533331,53.1999972 309.08,53.76 C309.626669,54.3200028 310.479994,54.6 311.64,54.6 C312.293337,54.6 312.843331,54.5433339 313.29,54.43 C313.736669,54.3166661 314.073332,54.2066672 314.3,54.1 L314.56,55.66 C314.333332,55.7800006 313.936669,55.906666 313.37,56.04 C312.803331,56.173334 312.160004,56.24 311.44,56.24 C310.533329,56.24 309.750003,56.1033347 309.09,55.83 C308.429997,55.5566653 307.886669,55.1800024 307.46,54.7 C307.033331,54.2199976 306.716668,53.6500033 306.51,52.99 C306.303332,52.3299967 306.2,51.6066706 306.2,50.82 Z M313.34,49.8 C313.353333,48.9599958 313.143336,48.2700027 312.71,47.73 C312.276665,47.1899973 311.680004,46.92 310.92,46.92 C310.493331,46.92 310.116668,47.0033325 309.79,47.17 C309.463332,47.3366675 309.186668,47.553332 308.96,47.82 C308.733332,48.086668 308.556667,48.3933316 308.43,48.74 C308.303333,49.0866684 308.22,49.4399982 308.18,49.8 L313.34,49.8 Z M320.38,54.66 C321.140004,54.66 321.703331,54.560001 322.07,54.36 C322.436668,54.159999 322.62,53.8400022 322.62,53.4 C322.62,52.9466644 322.440002,52.586668 322.08,52.32 C321.719998,52.053332 321.126671,51.753335 320.3,51.42 C319.899998,51.2599992 319.516669,51.0966675 319.15,50.93 C318.783332,50.7633325 318.466668,50.5666678 318.2,50.34 C317.933332,50.1133322 317.720001,49.8400016 317.56,49.52 C317.399999,49.1999984 317.32,48.806669 317.32,48.34 C317.32,47.4199954 317.659997,46.6900027 318.34,46.15 C319.020003,45.6099973 319.946661,45.34 321.12,45.34 C321.413335,45.34 321.706665,45.3566665 322,45.39 C322.293335,45.4233335 322.566665,45.4633331 322.82,45.51 C323.073335,45.5566669 323.296666,45.6066664 323.49,45.66 C323.683334,45.7133336 323.833333,45.7599998 323.94,45.8 L323.6,47.4 C323.399999,47.2933328 323.086669,47.1833339 322.66,47.07 C322.233331,46.9566661 321.720003,46.9 321.12,46.9 C320.599997,46.9 320.146669,47.0033323 319.76,47.21 C319.373331,47.4166677 319.18,47.7399978 319.18,48.18 C319.18,48.4066678 319.223333,48.6066658 319.31,48.78 C319.396667,48.9533342 319.529999,49.1099993 319.71,49.25 C319.890001,49.3900007 320.113332,49.5199994 320.38,49.64 C320.646668,49.7600006 320.966665,49.886666 321.34,50.02 C321.833336,50.2066676 322.273331,50.3899991 322.66,50.57 C323.046669,50.7500009 323.376665,50.9599988 323.65,51.2 C323.923335,51.4400012 324.133333,51.7299983 324.28,52.07 C324.426667,52.4100017 324.5,52.8266642 324.5,53.32 C324.5,54.2800048 324.143337,55.0066642 323.43,55.5 C322.716663,55.9933358 321.700007,56.24 320.38,56.24 C319.459995,56.24 318.740003,56.1633341 318.22,56.01 C317.699997,55.8566659 317.346668,55.7400004 317.16,55.66 L317.5,54.06 C317.713334,54.1400004 318.053331,54.2599992 318.52,54.42 C318.986669,54.5800008 319.606663,54.66 320.38,54.66 Z" id="CoolCourses" fill="#2C2A2F"></path>
            <path d="M217.43,70.66 L217.43,72 L212.8,72 L212.8,65.07 L214.36,65.07 L214.36,70.66 L217.43,70.66 Z M223.25,69.36 C223.25,69.7733354 223.190001,70.1516649 223.07,70.495 C222.949999,70.838335 222.776668,71.1316654 222.55,71.375 C222.323332,71.6183346 222.051668,71.806666 221.735,71.94 C221.418332,72.073334 221.063335,72.14 220.67,72.14 C220.283331,72.14 219.931668,72.073334 219.615,71.94 C219.298332,71.806666 219.026668,71.6183346 218.8,71.375 C218.573332,71.1316654 218.396667,70.838335 218.27,70.495 C218.143333,70.1516649 218.08,69.7733354 218.08,69.36 C218.08,68.9466646 218.144999,68.5700017 218.275,68.23 C218.405001,67.8899983 218.584999,67.6000012 218.815,67.36 C219.045001,67.1199988 219.318332,66.933334 219.635,66.8 C219.951668,66.666666 220.296665,66.6 220.67,66.6 C221.050002,66.6 221.398332,66.666666 221.715,66.8 C222.031668,66.933334 222.303332,67.1199988 222.53,67.36 C222.756668,67.6000012 222.933333,67.8899983 223.06,68.23 C223.186667,68.5700017 223.25,68.9466646 223.25,69.36 Z M221.73,69.36 C221.73,68.8999977 221.638334,68.5383346 221.455,68.275 C221.271666,68.0116654 221.010002,67.88 220.67,67.88 C220.329998,67.88 220.066668,68.0116654 219.88,68.275 C219.693332,68.5383346 219.6,68.8999977 219.6,69.36 C219.6,69.8200023 219.693332,70.1849986 219.88,70.455 C220.066668,70.7250013 220.329998,70.86 220.67,70.86 C221.010002,70.86 221.271666,70.7250013 221.455,70.455 C221.638334,70.1849986 221.73,69.8200023 221.73,69.36 Z M225.67,69.2 C225.67,70.0333375 226.006663,70.45 226.68,70.45 C226.833334,70.45 226.976666,70.4300002 227.11,70.39 C227.243334,70.3499998 227.356666,70.3033336 227.45,70.25 L227.45,67.87 C227.376666,67.8566666 227.29,67.845 227.19,67.835 C227.09,67.825 226.973334,67.82 226.84,67.82 C226.446665,67.82 226.153334,67.9499987 225.96,68.21 C225.766666,68.4700013 225.67,68.799998 225.67,69.2 Z M228.94,71.34 C228.94,72.2000043 228.721669,72.8383312 228.285,73.255 C227.848331,73.6716687 227.173338,73.88 226.26,73.88 C225.939998,73.88 225.620002,73.8516669 225.3,73.795 C224.979998,73.738333 224.683335,73.6633338 224.41,73.57 L224.67,72.32 C224.903334,72.4133338 225.148332,72.4866664 225.405,72.54 C225.661668,72.5933336 225.953332,72.62 226.28,72.62 C226.706669,72.62 227.008332,72.5266676 227.185,72.34 C227.361668,72.1533324 227.45,71.9133348 227.45,71.62 L227.45,71.43 C227.289999,71.5033337 227.125001,71.5583331 226.955,71.595 C226.784999,71.6316669 226.600001,71.65 226.4,71.65 C225.67333,71.65 225.116669,71.4350022 224.73,71.005 C224.343331,70.5749979 224.15,69.9733372 224.15,69.2 C224.15,68.8133314 224.209999,68.4616683 224.33,68.145 C224.450001,67.8283318 224.624999,67.5566678 224.855,67.33 C225.085001,67.1033322 225.366665,66.9283339 225.7,66.805 C226.033335,66.6816661 226.409998,66.62 226.83,66.62 C227.010001,66.62 227.194999,66.6283332 227.385,66.645 C227.575001,66.6616667 227.763332,66.6833332 227.95,66.71 C228.136668,66.7366668 228.314999,66.7683332 228.485,66.805 C228.655001,66.8416668 228.806666,66.8799998 228.94,66.92 L228.94,71.34 Z M235.26,69.36 C235.26,69.7733354 235.200001,70.1516649 235.08,70.495 C234.959999,70.838335 234.786668,71.1316654 234.56,71.375 C234.333332,71.6183346 234.061668,71.806666 233.745,71.94 C233.428332,72.073334 233.073335,72.14 232.68,72.14 C232.293331,72.14 231.941668,72.073334 231.625,71.94 C231.308332,71.806666 231.036668,71.6183346 230.81,71.375 C230.583332,71.1316654 230.406667,70.838335 230.28,70.495 C230.153333,70.1516649 230.09,69.7733354 230.09,69.36 C230.09,68.9466646 230.154999,68.5700017 230.285,68.23 C230.415001,67.8899983 230.594999,67.6000012 230.825,67.36 C231.055001,67.1199988 231.328332,66.933334 231.645,66.8 C231.961668,66.666666 232.306665,66.6 232.68,66.6 C233.060002,66.6 233.408332,66.666666 233.725,66.8 C234.041668,66.933334 234.313332,67.1199988 234.54,67.36 C234.766668,67.6000012 234.943333,67.8899983 235.07,68.23 C235.196667,68.5700017 235.26,68.9466646 235.26,69.36 Z M233.74,69.36 C233.74,68.8999977 233.648334,68.5383346 233.465,68.275 C233.281666,68.0116654 233.020002,67.88 232.68,67.88 C232.339998,67.88 232.076668,68.0116654 231.89,68.275 C231.703332,68.5383346 231.61,68.8999977 231.61,69.36 C231.61,69.8200023 231.703332,70.1849986 231.89,70.455 C232.076668,70.7250013 232.339998,70.86 232.68,70.86 C233.020002,70.86 233.281666,70.7250013 233.465,70.455 C233.648334,70.1849986 233.74,69.8200023 233.74,69.36 Z M242.18,69.41 C242.18,68.9499977 242.076668,68.5816681 241.87,68.305 C241.663332,68.0283319 241.356669,67.89 240.95,67.89 C240.816666,67.89 240.693334,67.8949999 240.58,67.905 C240.466666,67.9150001 240.373334,67.9266666 240.3,67.94 L240.3,70.63 C240.393334,70.6900003 240.514999,70.7399998 240.665,70.78 C240.815001,70.8200002 240.966666,70.84 241.12,70.84 C241.82667,70.84 242.18,70.3633381 242.18,69.41 Z M243.7,69.37 C243.7,69.7766687 243.650001,70.146665 243.55,70.48 C243.449999,70.813335 243.303334,71.0999988 243.11,71.34 C242.916666,71.5800012 242.676668,71.766666 242.39,71.9 C242.103332,72.033334 241.773335,72.1 241.4,72.1 C241.193332,72.1 241.000001,72.0800002 240.82,72.04 C240.639999,71.9999998 240.466667,71.9433337 240.3,71.87 L240.3,73.85 L238.81,73.85 L238.81,66.92 C238.943334,66.8799998 239.096666,66.8416668 239.27,66.805 C239.443334,66.7683332 239.624999,66.7366668 239.815,66.71 C240.005001,66.6833332 240.198332,66.6616667 240.395,66.645 C240.591668,66.6283332 240.779999,66.62 240.96,66.62 C241.393336,66.62 241.779998,66.6849993 242.12,66.815 C242.460002,66.9450006 242.746666,67.1283322 242.98,67.365 C243.213335,67.6016678 243.391666,67.8899983 243.515,68.23 C243.638334,68.5700017 243.7,68.9499979 243.7,69.37 Z M246.95,72.1 C246.516664,72.0933333 246.165001,72.0466671 245.895,71.96 C245.624999,71.8733329 245.411667,71.7516674 245.255,71.595 C245.098333,71.4383325 244.991667,71.2483345 244.935,71.025 C244.878333,70.8016655 244.85,70.5500014 244.85,70.27 L244.85,64.48 L246.34,64.24 L246.34,69.97 C246.34,70.103334 246.35,70.2233328 246.37,70.33 C246.39,70.4366672 246.428333,70.5266663 246.485,70.6 C246.541667,70.6733337 246.623333,70.7333331 246.73,70.78 C246.836667,70.8266669 246.979999,70.8566666 247.16,70.87 L246.95,72.1 Z M250.17,70.96 C250.316667,70.96 250.456666,70.9566667 250.59,70.95 C250.723334,70.9433333 250.83,70.9333334 250.91,70.92 L250.91,69.79 C250.85,69.7766666 250.760001,69.7633334 250.64,69.75 C250.519999,69.7366666 250.41,69.73 250.31,69.73 C250.169999,69.73 250.038334,69.7383332 249.915,69.755 C249.791666,69.7716667 249.683334,69.8033331 249.59,69.85 C249.496666,69.8966669 249.423334,69.9599996 249.37,70.04 C249.316666,70.1200004 249.29,70.2199994 249.29,70.34 C249.29,70.5733345 249.368333,70.7349995 249.525,70.825 C249.681667,70.9150005 249.896665,70.96 250.17,70.96 Z M250.05,66.6 C250.490002,66.6 250.856665,66.6499995 251.15,66.75 C251.443335,66.8500005 251.678332,66.9933324 251.855,67.18 C252.031668,67.3666676 252.156666,67.593332 252.23,67.86 C252.303334,68.126668 252.34,68.4233317 252.34,68.75 L252.34,71.85 C252.126666,71.8966669 251.830002,71.9516663 251.45,72.015 C251.069998,72.0783337 250.610003,72.11 250.07,72.11 C249.729998,72.11 249.421668,72.0800003 249.145,72.02 C248.868332,71.9599997 248.630001,71.8616674 248.43,71.725 C248.229999,71.5883326 248.076667,71.4100011 247.97,71.19 C247.863333,70.9699989 247.81,70.7000016 247.81,70.38 C247.81,70.0733318 247.871666,69.8133344 247.995,69.6 C248.118334,69.3866656 248.283332,69.2166673 248.49,69.09 C248.696668,68.9633327 248.933332,68.871667 249.2,68.815 C249.466668,68.7583331 249.743332,68.73 250.03,68.73 C250.223334,68.73 250.394999,68.7383332 250.545,68.755 C250.695001,68.7716667 250.816666,68.7933332 250.91,68.82 L250.91,68.68 C250.91,68.4266654 250.833334,68.2233341 250.68,68.07 C250.526666,67.9166659 250.260002,67.84 249.88,67.84 C249.626665,67.84 249.376668,67.8583331 249.13,67.895 C248.883332,67.9316668 248.670001,67.983333 248.49,68.05 L248.3,66.85 C248.386667,66.8233332 248.494999,66.7950001 248.625,66.765 C248.755001,66.7349998 248.896666,66.7083334 249.05,66.685 C249.203334,66.6616666 249.364999,66.6416667 249.535,66.625 C249.705001,66.6083333 249.876666,66.6 250.05,66.6 Z M253.44,69.37 C253.44,68.9899981 253.501666,68.6316683 253.625,68.295 C253.748334,67.9583317 253.926666,67.6650013 254.16,67.415 C254.393335,67.1649987 254.676665,66.9666674 255.01,66.82 C255.343335,66.6733326 255.723331,66.6 256.15,66.6 C256.430001,66.6 256.686666,66.6249998 256.92,66.675 C257.153335,66.7250002 257.379999,66.7966662 257.6,66.89 L257.29,68.08 C257.149999,68.0266664 256.996668,67.9800002 256.83,67.94 C256.663333,67.8999998 256.476668,67.88 256.27,67.88 C255.829998,67.88 255.501668,68.0166653 255.285,68.29 C255.068332,68.5633347 254.96,68.9233311 254.96,69.37 C254.96,69.8433357 255.061666,70.2099987 255.265,70.47 C255.468334,70.7300013 255.823331,70.86 256.33,70.86 C256.510001,70.86 256.703332,70.8433335 256.91,70.81 C257.116668,70.7766665 257.306666,70.7233337 257.48,70.65 L257.69,71.87 C257.516666,71.9433337 257.300001,72.0066664 257.04,72.06 C256.779999,72.1133336 256.493335,72.14 256.18,72.14 C255.699998,72.14 255.286668,72.0683341 254.94,71.925 C254.593332,71.781666 254.308334,71.5866679 254.085,71.34 C253.861666,71.0933321 253.698334,70.8016683 253.595,70.465 C253.491666,70.1283317 253.44,69.7633353 253.44,69.37 Z M258.19,69.41 C258.19,68.943331 258.261666,68.5350018 258.405,68.185 C258.548334,67.8349982 258.736666,67.5433345 258.97,67.31 C259.203334,67.0766655 259.471665,66.9000006 259.775,66.78 C260.078335,66.6599994 260.389998,66.6 260.71,66.6 C261.45667,66.6 262.046665,66.8283311 262.48,67.285 C262.913336,67.741669 263.13,68.4133289 263.13,69.3 C263.13,69.3866671 263.126667,69.4816661 263.12,69.585 C263.113333,69.6883338 263.106667,69.7799996 263.1,69.86 L259.72,69.86 C259.753333,70.1666682 259.896665,70.4099991 260.15,70.59 C260.403335,70.7700009 260.743331,70.86 261.17,70.86 C261.443335,70.86 261.711665,70.8350003 261.975,70.785 C262.238335,70.7349998 262.453332,70.6733337 262.62,70.6 L262.82,71.81 C262.74,71.8500002 262.633334,71.8899998 262.5,71.93 C262.366666,71.9700002 262.218334,72.0049999 262.055,72.035 C261.891666,72.0650002 261.716668,72.0899999 261.53,72.11 C261.343332,72.1300001 261.156668,72.14 260.97,72.14 C260.496664,72.14 260.085002,72.0700007 259.735,71.93 C259.384998,71.7899993 259.095001,71.5983346 258.865,71.355 C258.634999,71.1116655 258.465001,70.823335 258.355,70.49 C258.244999,70.156665 258.19,69.7966686 258.19,69.41 Z M261.69,68.84 C261.683333,68.7133327 261.661667,68.5900006 261.625,68.47 C261.588333,68.3499994 261.531667,68.2433338 261.455,68.15 C261.378333,68.0566662 261.281667,67.9800003 261.165,67.92 C261.048333,67.8599997 260.903334,67.83 260.73,67.83 C260.563333,67.83 260.420001,67.858333 260.3,67.915 C260.179999,67.9716669 260.08,68.0466662 260,68.14 C259.92,68.2333338 259.858334,68.3416661 259.815,68.465 C259.771666,68.588334 259.74,68.7133327 259.72,68.84 L261.69,68.84 Z M264.28,72 L264.28,64.48 L265.77,64.24 L265.77,66.76 C265.870001,66.7266665 265.998333,66.6950001 266.155,66.665 C266.311667,66.6349998 266.463333,66.62 266.61,66.62 C267.036669,66.62 267.391665,66.6783327 267.675,66.795 C267.958335,66.9116672 268.184999,67.0766656 268.355,67.29 C268.525001,67.5033344 268.645,67.7566652 268.715,68.05 C268.785,68.3433348 268.82,68.6699982 268.82,69.03 L268.82,72 L267.33,72 L267.33,69.21 C267.33,68.7299976 267.268334,68.390001 267.145,68.19 C267.021666,67.989999 266.793335,67.89 266.46,67.89 C266.326666,67.89 266.201667,67.9016666 266.085,67.925 C265.968333,67.9483335 265.863334,67.9733332 265.77,68 L265.77,72 L264.28,72 Z M275.09,69.36 C275.09,69.7733354 275.030001,70.1516649 274.91,70.495 C274.789999,70.838335 274.616668,71.1316654 274.39,71.375 C274.163332,71.6183346 273.891668,71.806666 273.575,71.94 C273.258332,72.073334 272.903335,72.14 272.51,72.14 C272.123331,72.14 271.771668,72.073334 271.455,71.94 C271.138332,71.806666 270.866668,71.6183346 270.64,71.375 C270.413332,71.1316654 270.236667,70.838335 270.11,70.495 C269.983333,70.1516649 269.92,69.7733354 269.92,69.36 C269.92,68.9466646 269.984999,68.5700017 270.115,68.23 C270.245001,67.8899983 270.424999,67.6000012 270.655,67.36 C270.885001,67.1199988 271.158332,66.933334 271.475,66.8 C271.791668,66.666666 272.136665,66.6 272.51,66.6 C272.890002,66.6 273.238332,66.666666 273.555,66.8 C273.871668,66.933334 274.143332,67.1199988 274.37,67.36 C274.596668,67.6000012 274.773333,67.8899983 274.9,68.23 C275.026667,68.5700017 275.09,68.9466646 275.09,69.36 Z M273.57,69.36 C273.57,68.8999977 273.478334,68.5383346 273.295,68.275 C273.111666,68.0116654 272.850002,67.88 272.51,67.88 C272.169998,67.88 271.906668,68.0116654 271.72,68.275 C271.533332,68.5383346 271.44,68.8999977 271.44,69.36 C271.44,69.8200023 271.533332,70.1849986 271.72,70.455 C271.906668,70.7250013 272.169998,70.86 272.51,70.86 C272.850002,70.86 273.111666,70.7250013 273.295,70.455 C273.478334,70.1849986 273.57,69.8200023 273.57,69.36 Z M278.34,72.1 C277.906665,72.0933333 277.555001,72.0466671 277.285,71.96 C277.014999,71.8733329 276.801667,71.7516674 276.645,71.595 C276.488333,71.4383325 276.381667,71.2483345 276.325,71.025 C276.268333,70.8016655 276.24,70.5500014 276.24,70.27 L276.24,64.48 L277.73,64.24 L277.73,69.97 C277.73,70.103334 277.74,70.2233328 277.76,70.33 C277.78,70.4366672 277.818333,70.5266663 277.875,70.6 C277.931667,70.6733337 278.013333,70.7333331 278.12,70.78 C278.226667,70.8266669 278.369999,70.8566666 278.55,70.87 L278.34,72.1 Z M280.67,69.33 C280.67,69.7900023 280.773332,70.1599986 280.98,70.44 C281.186668,70.7200014 281.493331,70.86 281.9,70.86 C282.033334,70.86 282.156666,70.8550001 282.27,70.845 C282.383334,70.8349999 282.476666,70.8233334 282.55,70.81 L282.55,68.1 C282.456666,68.0399997 282.335001,67.9900002 282.185,67.95 C282.034999,67.9099998 281.883334,67.89 281.73,67.89 C281.02333,67.89 280.67,68.3699952 280.67,69.33 Z M284.04,71.83 C283.906666,71.8700002 283.753334,71.9083332 283.58,71.945 C283.406666,71.9816668 283.225001,72.0133332 283.035,72.04 C282.844999,72.0666668 282.651668,72.0883333 282.455,72.105 C282.258332,72.1216668 282.070001,72.13 281.89,72.13 C281.456664,72.13 281.070002,72.0666673 280.73,71.94 C280.389998,71.8133327 280.103335,71.6316678 279.87,71.395 C279.636665,71.1583322 279.458334,70.8716683 279.335,70.535 C279.211666,70.1983317 279.15,69.8200021 279.15,69.4 C279.15,68.9733312 279.203333,68.588335 279.31,68.245 C279.416667,67.9016649 279.569999,67.6100012 279.77,67.37 C279.970001,67.1299988 280.214999,66.9466673 280.505,66.82 C280.795001,66.6933327 281.126665,66.63 281.5,66.63 C281.706668,66.63 281.891666,66.6499998 282.055,66.69 C282.218334,66.7300002 282.383332,66.7866663 282.55,66.86 L282.55,64.48 L284.04,64.24 L284.04,71.83 Z M285.19,69.41 C285.19,68.943331 285.261666,68.5350018 285.405,68.185 C285.548334,67.8349982 285.736666,67.5433345 285.97,67.31 C286.203334,67.0766655 286.471665,66.9000006 286.775,66.78 C287.078335,66.6599994 287.389998,66.6 287.71,66.6 C288.45667,66.6 289.046665,66.8283311 289.48,67.285 C289.913336,67.741669 290.13,68.4133289 290.13,69.3 C290.13,69.3866671 290.126667,69.4816661 290.12,69.585 C290.113333,69.6883338 290.106667,69.7799996 290.1,69.86 L286.72,69.86 C286.753333,70.1666682 286.896665,70.4099991 287.15,70.59 C287.403335,70.7700009 287.743331,70.86 288.17,70.86 C288.443335,70.86 288.711665,70.8350003 288.975,70.785 C289.238335,70.7349998 289.453332,70.6733337 289.62,70.6 L289.82,71.81 C289.74,71.8500002 289.633334,71.8899998 289.5,71.93 C289.366666,71.9700002 289.218334,72.0049999 289.055,72.035 C288.891666,72.0650002 288.716668,72.0899999 288.53,72.11 C288.343332,72.1300001 288.156668,72.14 287.97,72.14 C287.496664,72.14 287.085002,72.0700007 286.735,71.93 C286.384998,71.7899993 286.095001,71.5983346 285.865,71.355 C285.634999,71.1116655 285.465001,70.823335 285.355,70.49 C285.244999,70.156665 285.19,69.7966686 285.19,69.41 Z M288.69,68.84 C288.683333,68.7133327 288.661667,68.5900006 288.625,68.47 C288.588333,68.3499994 288.531667,68.2433338 288.455,68.15 C288.378333,68.0566662 288.281667,67.9800003 288.165,67.92 C288.048333,67.8599997 287.903334,67.83 287.73,67.83 C287.563333,67.83 287.420001,67.858333 287.3,67.915 C287.179999,67.9716669 287.08,68.0466662 287,68.14 C286.92,68.2333338 286.858334,68.3416661 286.815,68.465 C286.771666,68.588334 286.74,68.7133327 286.72,68.84 L288.69,68.84 Z M294.45,68.06 C294.316666,68.0266665 294.160001,67.9916669 293.98,67.955 C293.799999,67.9183331 293.606668,67.9 293.4,67.9 C293.306666,67.9 293.195001,67.9083332 293.065,67.925 C292.934999,67.9416667 292.836667,67.9599999 292.77,67.98 L292.77,72 L291.28,72 L291.28,67.02 C291.546668,66.9266662 291.861665,66.8383338 292.225,66.755 C292.588335,66.6716663 292.993331,66.63 293.44,66.63 C293.52,66.63 293.616666,66.6349999 293.73,66.645 C293.843334,66.655 293.956666,66.6683333 294.07,66.685 C294.183334,66.7016668 294.296666,66.7216665 294.41,66.745 C294.523334,66.7683335 294.62,66.7966665 294.7,66.83 L294.45,68.06 Z" id="Logo-placeholder" fill="#2C2A2F" opacity="0.5"></path>
            <g id="Group-2" transform="translate(150.000000, 30.000000)" fill="#050505" fill-rule="nonzero">
                <path d="M49.9021277,18.9579787 C49.819016,18.6691649 49.588383,18.4468404 49.2954255,18.3761702 L25.1932979,12.5580851 C25.0644734,12.5269181 24.9314947,12.5269181 24.8026702,12.5580851 L0.700542553,18.3761702 C0.407574468,18.4468138 0.17693617,18.6691383 0.0938404255,18.9579787 C0.0128085106,19.2467926 0.0938404255,19.5584574 0.305776596,19.7703723 L5.53971277,25.0001596 L0.309925532,30.2299468 C0.0979893617,30.441883 0.0148776596,30.7535532 0.0979893617,31.0423404 C0.181101064,31.3311277 0.411734043,31.5534787 0.704691489,31.6241489 L24.8068191,37.442234 C24.8691543,37.4588564 24.9335638,37.4671676 25.0000532,37.4671676 C25.0665426,37.4671676 25.1309521,37.4588564 25.195367,37.4443117 L49.2974947,31.6262266 C49.5904628,31.555583 49.8210957,31.3332585 49.9041968,31.0444181 C49.9852287,30.7556043 49.9041968,30.4439394 49.6922606,30.2320245 L44.4603989,25.0001628 L49.6901862,19.7703755 C49.9021223,19.5563649 49.9831543,19.2467691 49.9021223,18.9579819 L49.9021277,18.9579787 Z M42.6962766,24.412234 C42.3721383,24.7363723 42.3721383,25.2620745 42.6962766,25.5882447 L47.4669149,30.358883 L24.9998936,35.7796277 L2.53287234,30.3567553 L7.30351064,25.586117 C7.62764894,25.261984 7.62764894,24.7362766 7.30351064,24.4101064 L2.53287234,19.6394681 L24.9998936,14.2203191 L47.4669149,19.6431915 L42.6962766,24.412234 Z" id="Shape"></path>
                <path d="M46.85,16.9755319 L48.4104255,16.4020745 C44.8220745,6.63239362 35.413617,0.0664361702 24.9997872,0.0664361702 C14.5859574,0.0664361702 5.17744681,6.63239362 1.58914894,16.4020745 L3.14957447,16.9755319 C6.49898936,7.85585106 15.2798936,1.7287234 24.9995745,1.7287234 C34.7192553,1.7287234 43.5001064,7.85638298 46.8495745,16.9755319 L46.85,16.9755319 Z" id="Shape"></path>
                <path d="M3.14994681,33.0244681 L1.58952128,33.5979255 C5.17787234,43.3676064 14.5863298,49.9335638 25.0001596,49.9335638 C35.4139894,49.9335638 44.8225,43.3676064 48.4107979,33.5979255 L46.8503723,33.0244681 C43.5009574,42.1441489 34.7200532,48.2712766 25.0003723,48.2712766 C15.2806915,48.2712766 6.49984043,42.143617 3.15037234,33.0244681 L3.14994681,33.0244681 Z" id="Shape"></path>
                <path d="M9.58085106,13.7031915 L10.9210106,14.6880851 C14.2039362,10.2167021 19.4667553,7.54659574 25.000266,7.54659574 C30.5337766,7.54659574 35.7965426,10.2165426 39.0773936,14.6880851 L40.4175532,13.7031915 C36.8271277,8.80792553 31.0611702,5.88457447 25.0005319,5.88457447 C18.9398936,5.88457447 13.1739362,8.80803191 9.58138298,13.7031915 L9.58085106,13.7031915 Z" id="Shape"></path>
                <path d="M40.4191489,36.2968085 L39.0789894,35.3119149 C35.7960638,39.7832979 30.5332447,42.4534043 24.999734,42.4534043 C19.4662234,42.4534043 14.2034574,39.7834574 10.9226064,35.3119149 L9.58244681,36.2968085 C13.1728723,41.1920745 18.9388298,44.1154255 24.9994681,44.1154255 C31.0601064,44.1154255 36.8260638,41.1919681 40.418617,36.2968085 L40.4191489,36.2968085 Z" id="Shape"></path>
                <path d="M15.0265957,20.0132979 L10.0398936,20.0132979 C9.58070213,20.0132979 9.2087766,20.3852234 9.2087766,20.8444149 L9.2087766,27.4933511 C9.2087766,27.9525426 9.58070213,28.3244681 10.0398936,28.3244681 L15.0265957,28.3244681 C15.4857872,28.3244681 15.8577128,27.9525426 15.8577128,27.4933511 L15.8577128,20.8444149 C15.8577128,20.3852234 15.4857872,20.0132979 15.0265957,20.0132979 Z M14.1954787,26.662234 L10.8710106,26.662234 L10.8710106,21.6755319 L14.1954787,21.6755319 L14.1954787,26.662234 Z" id="Shape"></path>
                <path d="M24.1691489,20.8446809 C24.1691489,20.3854894 23.7972234,20.0135638 23.3380319,20.0135638 L18.3513298,20.0135638 C17.8921383,20.0135638 17.5202128,20.3854894 17.5202128,20.8446809 L17.5202128,27.493617 C17.5202128,27.9528085 17.8921383,28.324734 18.3513298,28.324734 L23.3380319,28.324734 C23.7972234,28.324734 24.1691489,27.9528085 24.1691489,27.493617 L24.1691489,20.8446809 Z M22.5069149,26.662766 L19.1824468,26.662766 L19.1824468,21.6760638 L22.5069149,21.6760638 L22.5069149,26.662766 Z" id="Shape"></path>
                <path d="M26.662234,28.3244681 L31.6489362,28.3244681 C32.1081277,28.3244681 32.4800532,27.9525426 32.4800532,27.4933511 L32.4800532,20.8444149 C32.4800532,20.3852234 32.1081277,20.0132979 31.6489362,20.0132979 L26.662234,20.0132979 C26.2030426,20.0132979 25.831117,20.3852234 25.831117,20.8444149 L25.831117,27.4933511 C25.831117,27.9525426 26.2030426,28.3244681 26.662234,28.3244681 Z M27.4933511,21.6755319 L30.8178191,21.6755319 L30.8178191,26.662234 L27.4933511,26.662234 L27.4933511,21.6755319 Z" id="Shape"></path>
                <path d="M34.9734043,28.3244681 L39.9601064,28.3244681 C40.4192979,28.3244681 40.7912234,27.9525426 40.7912234,27.4933511 L40.7912234,20.8444149 C40.7912234,20.3852234 40.4192979,20.0132979 39.9601064,20.0132979 L34.9734043,20.0132979 C34.5142128,20.0132979 34.1422872,20.3852234 34.1422872,20.8444149 L34.1422872,27.4933511 C34.1422872,27.9525426 34.5142128,28.3244681 34.9734043,28.3244681 Z M35.8045213,21.6755319 L39.1289894,21.6755319 L39.1289894,26.662234 L35.8045213,26.662234 L35.8045213,21.6755319 Z" id="Shape"></path>
                <polygon id="Shape" points="20.8446809 29.9867021 22.5069149 29.9867021 22.5069149 31.6489362 20.8446809 31.6489362"></polygon>
                <polygon id="Shape" points="24.1691489 29.9867021 25.831383 29.9867021 25.831383 31.6489362 24.1691489 31.6489362"></polygon>
                <polygon id="Shape" points="27.493617 29.9867021 29.1558511 29.9867021 29.1558511 31.6489362 27.493617 31.6489362"></polygon>
            </g>
        </g>
    </g>
</svg>
