<?xml version="1.0" encoding="utf-8"?>
<!-- Generator: Adobe Illustrator 19.0.0, SVG Export Plug-In . SVG Version: 6.00 Build 0)  -->
<svg version="1.1" id="Layer_1" xmlns="http://www.w3.org/2000/svg" xmlns:xlink="http://www.w3.org/1999/xlink" x="0px" y="0px"
	 viewBox="0 0 311.8 87.9" style="enable-background:new 0 0 311.8 87.9;" xml:space="preserve">
<style type="text/css">
	.st0{fill:#43525A;}
	.st1{fill-rule:evenodd;clip-rule:evenodd;fill:#43525A;}
</style>
<g id="XMLID_1_">
	<g id="XMLID_2_">
		<path id="XMLID_30_" class="st0" d="M110.3,45.9c0.2,0.3,0.3,0.7,0.5,1c0.1,0.3,0.3,0.7,0.4,1.1c0.1-0.4,0.3-0.7,0.4-1.1
			c0.2-0.4,0.3-0.7,0.5-1l6.5-12.1c0.1-0.2,0.2-0.3,0.3-0.4c0.1-0.1,0.2-0.2,0.3-0.2c0.1,0,0.2-0.1,0.4-0.1c0.1,0,0.3,0,0.5,0h3.1
			V55h-3.6V40.9c0-0.3,0-0.5,0-0.9c0-0.3,0-0.6,0.1-1l-6.6,12.4c-0.2,0.3-0.3,0.5-0.6,0.7c-0.2,0.2-0.5,0.2-0.8,0.2h-0.6
			c-0.3,0-0.6-0.1-0.8-0.2c-0.2-0.2-0.4-0.4-0.6-0.7L102.8,39c0,0.3,0.1,0.7,0.1,1c0,0.3,0,0.6,0,0.9V55h-3.6V33.2h3.1
			c0.2,0,0.3,0,0.5,0c0.1,0,0.3,0,0.4,0.1c0.1,0,0.2,0.1,0.3,0.2c0.1,0.1,0.2,0.2,0.3,0.4L110.3,45.9z"/>
		<path id="XMLID_42_" class="st0" d="M153,44.1c0-1.2-0.2-2.3-0.5-3.2c-0.3-1-0.8-1.8-1.4-2.4c-0.6-0.7-1.3-1.2-2.2-1.5
			c-0.9-0.4-1.8-0.5-2.9-0.5c-1.1,0-2,0.2-2.9,0.5c-0.9,0.4-1.6,0.9-2.2,1.5c-0.6,0.7-1.1,1.5-1.4,2.4c-0.3,0.9-0.5,2-0.5,3.2
			c0,1.2,0.2,2.3,0.5,3.2c0.3,1,0.8,1.8,1.4,2.4c0.6,0.7,1.3,1.2,2.2,1.5c0.9,0.4,1.8,0.5,2.9,0.5c1.1,0,2-0.2,2.9-0.5
			c0.9-0.4,1.6-0.9,2.2-1.5c0.6-0.7,1.1-1.5,1.4-2.4C152.8,46.4,153,45.3,153,44.1 M157.2,44.1c0,1.6-0.3,3.1-0.8,4.5
			c-0.5,1.4-1.3,2.6-2.3,3.5c-1,1-2.1,1.8-3.5,2.3c-1.4,0.6-2.9,0.8-4.5,0.8c-1.7,0-3.2-0.3-4.5-0.8c-1.4-0.6-2.5-1.3-3.5-2.3
			c-1-1-1.7-2.2-2.3-3.5c-0.5-1.4-0.8-2.8-0.8-4.5c0-1.6,0.3-3.1,0.8-4.5c0.5-1.4,1.3-2.5,2.3-3.5c1-1,2.1-1.8,3.5-2.3
			c1.4-0.6,2.9-0.8,4.5-0.8c1.7,0,3.2,0.3,4.5,0.8c1.4,0.6,2.5,1.3,3.5,2.3c1,1,1.7,2.2,2.3,3.5C156.9,41,157.2,42.5,157.2,44.1z"/>
		<path id="XMLID_39_" class="st0" d="M184.4,44.1c0-1.2-0.2-2.3-0.5-3.2c-0.3-1-0.8-1.8-1.4-2.4c-0.6-0.7-1.3-1.2-2.2-1.5
			c-0.9-0.4-1.8-0.5-2.9-0.5h-4.2v15.4h4.2c1.1,0,2-0.2,2.9-0.5c0.9-0.4,1.6-0.9,2.2-1.5c0.6-0.7,1.1-1.5,1.4-2.4
			C184.2,46.4,184.4,45.3,184.4,44.1 M188.5,44.1c0,1.6-0.3,3.1-0.8,4.4c-0.5,1.3-1.3,2.5-2.3,3.5c-1,1-2.1,1.7-3.5,2.3
			c-1.4,0.5-2.9,0.8-4.5,0.8h-8.3V33.2h8.3c1.7,0,3.2,0.3,4.5,0.8c1.4,0.5,2.5,1.3,3.5,2.3c1,1,1.7,2.1,2.3,3.5
			C188.3,41,188.5,42.5,188.5,44.1z"/>
		<path id="XMLID_25_" class="st0" d="M209.3,51.7c0.8,0,1.5-0.1,2.1-0.4c0.6-0.3,1.1-0.6,1.6-1.1c0.4-0.5,0.8-1,1-1.7
			c0.2-0.7,0.3-1.4,0.3-2.3V33.2h4.1v13.1c0,1.3-0.2,2.5-0.6,3.6c-0.4,1.1-1,2.1-1.8,2.9c-0.8,0.8-1.7,1.4-2.9,1.9
			c-1.1,0.4-2.4,0.7-3.8,0.7c-1.4,0-2.7-0.2-3.8-0.7c-1.1-0.4-2.1-1.1-2.8-1.9c-0.8-0.8-1.4-1.8-1.8-2.9c-0.4-1.1-0.6-2.3-0.6-3.6
			V33.2h4.1v13.1c0,0.8,0.1,1.6,0.3,2.3c0.2,0.7,0.5,1.3,1,1.7c0.4,0.5,0.9,0.8,1.6,1.1C207.8,51.6,208.5,51.7,209.3,51.7"/>
		<polygon id="XMLID_24_" class="st0" points="235.3,51.7 244.1,51.7 244.1,55 231.3,55 231.3,33.2 235.3,33.2 		"/>
		<path id="XMLID_34_" class="st0" d="M271.2,44.1c0-1.2-0.2-2.3-0.5-3.2c-0.3-1-0.8-1.8-1.4-2.4c-0.6-0.7-1.3-1.2-2.2-1.5
			c-0.9-0.4-1.8-0.5-2.9-0.5c-1.1,0-2,0.2-2.9,0.5c-0.9,0.4-1.6,0.9-2.2,1.5c-0.6,0.7-1.1,1.5-1.4,2.4c-0.3,0.9-0.5,2-0.5,3.2
			c0,1.2,0.2,2.3,0.5,3.2c0.3,1,0.8,1.8,1.4,2.4c0.6,0.7,1.3,1.2,2.2,1.5c0.9,0.4,1.8,0.5,2.9,0.5c1.1,0,2-0.2,2.9-0.5
			c0.9-0.4,1.6-0.9,2.2-1.5c0.6-0.7,1.1-1.5,1.4-2.4C271.1,46.4,271.2,45.3,271.2,44.1 M275.4,44.1c0,1.6-0.3,3.1-0.8,4.5
			c-0.5,1.4-1.3,2.6-2.3,3.5c-1,1-2.1,1.8-3.5,2.3c-1.4,0.6-2.9,0.8-4.5,0.8s-3.2-0.3-4.5-0.8c-1.4-0.6-2.5-1.3-3.5-2.3
			c-1-1-1.7-2.2-2.3-3.5c-0.5-1.4-0.8-2.8-0.8-4.5c0-1.6,0.3-3.1,0.8-4.5c0.5-1.4,1.3-2.5,2.3-3.5c1-1,2.1-1.8,3.5-2.3
			c1.4-0.6,2.9-0.8,4.5-0.8s3.2,0.3,4.5,0.8c1.4,0.6,2.5,1.3,3.5,2.3c1,1,1.7,2.2,2.3,3.5C275.1,41,275.4,42.5,275.4,44.1z"/>
		<path id="XMLID_21_" class="st0" d="M299.1,37.1c-0.1,0.2-0.2,0.4-0.4,0.5c-0.1,0.1-0.3,0.1-0.5,0.1c-0.2,0-0.4-0.1-0.7-0.2
			c-0.3-0.2-0.5-0.3-0.9-0.5c-0.3-0.2-0.7-0.4-1.2-0.5c-0.5-0.2-1-0.2-1.6-0.2c-0.6,0-1.1,0.1-1.5,0.2c-0.4,0.1-0.8,0.3-1.1,0.6
			c-0.3,0.2-0.5,0.5-0.6,0.9c-0.1,0.3-0.2,0.7-0.2,1.1c0,0.5,0.1,0.9,0.4,1.3c0.3,0.3,0.7,0.6,1.1,0.9c0.5,0.2,1,0.5,1.6,0.7
			c0.6,0.2,1.2,0.4,1.9,0.6c0.6,0.2,1.2,0.5,1.8,0.8c0.6,0.3,1.1,0.7,1.6,1.1c0.5,0.4,0.9,1,1.1,1.6c0.3,0.6,0.4,1.4,0.4,2.3
			c0,1-0.2,1.9-0.5,2.8c-0.3,0.9-0.8,1.6-1.5,2.3c-0.7,0.6-1.4,1.1-2.4,1.5c-0.9,0.4-2,0.5-3.2,0.5c-0.7,0-1.4-0.1-2.1-0.2
			c-0.7-0.1-1.3-0.3-1.9-0.6c-0.6-0.3-1.2-0.6-1.7-0.9c-0.5-0.4-1-0.7-1.4-1.2l1.2-2c0.1-0.1,0.2-0.3,0.4-0.4
			c0.2-0.1,0.3-0.1,0.5-0.1c0.3,0,0.5,0.1,0.8,0.3c0.3,0.2,0.6,0.4,1,0.7c0.4,0.3,0.9,0.5,1.4,0.7c0.5,0.2,1.2,0.3,1.9,0.3
			c1.2,0,2.1-0.3,2.7-0.8c0.6-0.5,1-1.3,1-2.4c0-0.6-0.1-1-0.4-1.4c-0.3-0.4-0.7-0.7-1.1-0.9c-0.5-0.2-1-0.5-1.6-0.6
			c-0.6-0.2-1.2-0.4-1.8-0.6c-0.6-0.2-1.2-0.4-1.8-0.7c-0.6-0.3-1.1-0.7-1.6-1.1c-0.5-0.5-0.9-1-1.1-1.7c-0.3-0.7-0.4-1.5-0.4-2.5
			c0-0.8,0.2-1.6,0.5-2.3c0.3-0.8,0.8-1.4,1.4-2c0.6-0.6,1.4-1.1,2.2-1.4c0.9-0.4,1.9-0.5,3-0.5c1.3,0,2.5,0.2,3.6,0.6
			c1.1,0.4,2,1,2.8,1.7L299.1,37.1z"/>
	</g>
	<g id="XMLID_31_">
		<polygon id="XMLID_41_" class="st1" points="47.2,54 17,33.8 17,54 21.2,56.8 21.2,42.7 47.2,60 73.2,42.7 73.2,56.8 77.4,54 
			77.4,33.8 		"/>
		<polygon id="XMLID_40_" class="st1" points="47.2,13.7 20.3,31.6 24.5,34.4 47.2,19.3 69.8,34.4 74,31.6 		"/>
		<path id="XMLID_35_" class="st1" d="M73.2,55.7l0.8,0.6l-0.8,0.6V55.7z M21.2,56.8l-0.8-0.6l0.8-0.6V56.8z M47.2,74.1L25.4,59.6
			V54l21.8,14.5L69,54v5.6L47.2,74.1z"/>
	</g>
</g>
</svg>
